<?xml version="1.0" encoding="UTF-8" standalone="no"?>
<svg
   width="24"
   height="24"
   viewBox="0 0 24 24"
   fill="none"
   stroke="currentColor"
   stroke-width="2"
   stroke-linecap="round"
   stroke-linejoin="round"
   class="icon icon-tabler icons-tabler-outline scale-110 sm:scale-100"
   version="1.1"
   id="svg1"
   sodipodi:docname="IconBluesky.svg"
   inkscape:version="1.4.2 (f4327f4, 2025-05-13)"
   xmlns:inkscape="http://www.inkscape.org/namespaces/inkscape"
   xmlns:sodipodi="http://sodipodi.sourceforge.net/DTD/sodipodi-0.dtd"
   xmlns="http://www.w3.org/2000/svg"
   xmlns:svg="http://www.w3.org/2000/svg">
  <defs
     id="defs1" />
  <sodipodi:namedview
     id="namedview1"
     pagecolor="#ffffff"
     bordercolor="#000000"
     borderopacity="0.25"
     inkscape:showpageshadow="2"
     inkscape:pageopacity="0.0"
     inkscape:pagecheckerboard="0"
     inkscape:deskcolor="#d1d1d1"
     inkscape:zoom="33.625"
     inkscape:cx="12"
     inkscape:cy="12"
     inkscape:window-width="1920"
     inkscape:window-height="1009"
     inkscape:window-x="1072"
     inkscape:window-y="-8"
     inkscape:window-maximized="1"
     inkscape:current-layer="svg1" />
  <path
     d="m 6.582552,3.7786243 c 2.1150227,1.8035401 4.389843,5.4604455 5.225166,7.4227297 0.835323,-1.9622842 3.110143,-5.6191896 5.225165,-7.4227297 1.526084,-1.3013349 3.998829,-2.3082475 3.998829,0.895803 0,0.6398747 -0.323002,5.3754237 -0.512451,6.1442977 -0.658509,2.672833 -3.058047,3.354571 -5.192557,2.94195 3.731008,0.721248 4.680105,3.110283 2.630332,5.499317 -3.892915,4.537247 -5.595197,-1.138407 -6.031387,-2.592707 -0.07996,-0.266609 -0.117379,-0.391336 -0.117931,-0.285274 -5.51e-4,-0.106062 -0.03796,0.01867 -0.117931,0.285274 -0.43619,1.4543 -2.1384723,7.129954 -6.0313979,2.592707 C 3.6086128,16.870958 4.5577163,14.481923 8.2887314,13.760675 6.1542211,14.173296 3.7546995,13.491558 3.096168,10.818725 2.9067335,10.049851 2.5837232,5.314302 2.5837232,4.6744273 c 0,-3.2040505 2.4727611,-2.1971379 3.9988288,-0.895803 z"
     id="path1"
     style="stroke-width:1.74551" />
</svg>
